{
    "asset" : {
        "generator" : "Khronos glTF Blender I/O v1.8.19",
        "version" : "2.0"
    },
    "scene" : 0,
    "scenes" : [
        {
            "name" : "Scene",
            "nodes" : [
                0,
                1
            ]
        }
    ],
    "nodes" : [
        {
            "mesh" : 0,
            "name" : "polySurface1",
            "rotation" : [
                0.7071068286895752,
                0,
                0,
                0.7071067094802856
            ],
            "scale" : [
                0.009999999776482582,
                0.009999999776482582,
                0.009999999776482582
            ]
        },
        {
            "mesh" : 1,
            "name" : "polySurface1.001",
            "rotation" : [
                0.7071068286895752,
                0,
                0,
                0.7071067094802856
            ],
            "scale" : [
                0.9899999499320984,
                0.9899999499320984,
                0.5250619649887085
            ]
        }
    ],
    "materials" : [
        {
            "doubleSided" : true,
            "name" : "Trank_bark1",
            "pbrMetallicRoughness" : {
                "baseColorTexture" : {
                    "index" : 0
                },
                "metallicFactor" : 0.5,
                "roughnessFactor" : 0.5757359266281128
            }
        },
        {
            "alphaMode" : "BLEND",
            "doubleSided" : true,
            "name" : "DB2X2_L02",
            "normalTexture" : {
                "index" : 1
            },
            "pbrMetallicRoughness" : {
                "baseColorTexture" : {
                    "index" : 2
                },
                "metallicFactor" : 0,
                "roughnessFactor" : 0.7191085815429688
            }
        },
        {
            "doubleSided" : true,
            "name" : "Trank_bark1.001",
            "pbrMetallicRoughness" : {
                "baseColorTexture" : {
                    "index" : 3
                },
                "metallicFactor" : 0.5,
                "roughnessFactor" : 0.5757359266281128
            }
        },
        {
            "alphaMode" : "BLEND",
            "doubleSided" : true,
            "name" : "DB2X2_L02.001",
            "normalTexture" : {
                "index" : 4
            },
            "pbrMetallicRoughness" : {
                "baseColorTexture" : {
                    "index" : 5
                },
                "metallicFactor" : 0,
                "roughnessFactor" : 0.7191085815429688
            }
        }
    ],
    "meshes" : [
        {
            "name" : "Mesh",
            "primitives" : [
                {
                    "attributes" : {
                        "POSITION" : 0,
                        "NORMAL" : 1,
                        "TEXCOORD_0" : 2
                    },
                    "indices" : 3,
                    "material" : 0
                },
                {
                    "attributes" : {
                        "POSITION" : 4,
                        "NORMAL" : 5,
                        "TEXCOORD_0" : 6
                    },
                    "indices" : 7,
                    "material" : 1
                }
            ]
        },
        {
            "name" : "Mesh.001",
            "primitives" : [
                {
                    "attributes" : {
                        "POSITION" : 8,
                        "NORMAL" : 9,
                        "TEXCOORD_0" : 10
                    },
                    "indices" : 3,
                    "material" : 2
                },
                {
                    "attributes" : {
                        "POSITION" : 11,
                        "NORMAL" : 12,
                        "TEXCOORD_0" : 13
                    },
                    "indices" : 7,
                    "material" : 3
                }
            ]
        }
    ],
    "textures" : [
        {
            "sampler" : 0,
            "source" : 0
        },
        {
            "sampler" : 0,
            "source" : 1
        },
        {
            "sampler" : 0,
            "source" : 2
        },
        {
            "sampler" : 0,
            "source" : 0
        },
        {
            "sampler" : 0,
            "source" : 1
        },
        {
            "sampler" : 0,
            "source" : 2
        }
    ],
    "images" : [
        {
            "mimeType" : "image/jpeg",
            "name" : "bark_0021",
            "uri" : "bark_0021.jpg"
        },
        {
            "mimeType" : "image/png",
            "name" : "DB2X2_L01_Nor",
            "uri" : "DB2X2_L01_Nor.png"
        },
        {
            "mimeType" : "image/png",
            "name" : "DB2X2_L01",
            "uri" : "DB2X2_L01.png"
        }
    ],
    "accessors" : [
        {
            "bufferView" : 0,
            "componentType" : 5126,
            "count" : 20262,
            "max" : [
                1.3621289730072021,
                1.3919509649276733,
                0
            ],
            "min" : [
                -1.5695610046386719,
                -1.4089959859848022,
                -3.5887699127197266
            ],
            "type" : "VEC3"
        },
        {
            "bufferView" : 1,
            "componentType" : 5126,
            "count" : 20262,
            "type" : "VEC3"
        },
        {
            "bufferView" : 2,
            "componentType" : 5126,
            "count" : 20262,
            "type" : "VEC2"
        },
        {
            "bufferView" : 3,
            "componentType" : 5123,
            "count" : 20262,
            "type" : "SCALAR"
        },
        {
            "bufferView" : 4,
            "componentType" : 5126,
            "count" : 20910,
            "max" : [
                1.7888920307159424,
                1.7033220529556274,
                -1.4947999715805054
            ],
            "min" : [
                -1.8449180126190186,
                -1.8419129848480225,
                -3.821959972381592
            ],
            "type" : "VEC3"
        },
        {
            "bufferView" : 5,
            "componentType" : 5126,
            "count" : 20910,
            "type" : "VEC3"
        },
        {
            "bufferView" : 6,
            "componentType" : 5126,
            "count" : 20910,
            "type" : "VEC2"
        },
        {
            "bufferView" : 7,
            "componentType" : 5123,
            "count" : 20910,
            "type" : "SCALAR"
        },
        {
            "bufferView" : 8,
            "componentType" : 5126,
            "count" : 20262,
            "max" : [
                1.3621289730072021,
                1.3919509649276733,
                0
            ],
            "min" : [
                -1.5695610046386719,
                -1.4089959859848022,
                -3.5887699127197266
            ],
            "type" : "VEC3"
        },
        {
            "bufferView" : 9,
            "componentType" : 5126,
            "count" : 20262,
            "type" : "VEC3"
        },
        {
            "bufferView" : 10,
            "componentType" : 5126,
            "count" : 20262,
            "type" : "VEC2"
        },
        {
            "bufferView" : 11,
            "componentType" : 5126,
            "count" : 20910,
            "max" : [
                1.7888920307159424,
                1.7033220529556274,
                -1.4947999715805054
            ],
            "min" : [
                -1.8449180126190186,
                -1.8419129848480225,
                -3.821959972381592
            ],
            "type" : "VEC3"
        },
        {
            "bufferView" : 12,
            "componentType" : 5126,
            "count" : 20910,
            "type" : "VEC3"
        },
        {
            "bufferView" : 13,
            "componentType" : 5126,
            "count" : 20910,
            "type" : "VEC2"
        }
    ],
    "bufferViews" : [
        {
            "buffer" : 0,
            "byteLength" : 243144,
            "byteOffset" : 0
        },
        {
            "buffer" : 0,
            "byteLength" : 243144,
            "byteOffset" : 243144
        },
        {
            "buffer" : 0,
            "byteLength" : 162096,
            "byteOffset" : 486288
        },
        {
            "buffer" : 0,
            "byteLength" : 40524,
            "byteOffset" : 648384
        },
        {
            "buffer" : 0,
            "byteLength" : 250920,
            "byteOffset" : 688908
        },
        {
            "buffer" : 0,
            "byteLength" : 250920,
            "byteOffset" : 939828
        },
        {
            "buffer" : 0,
            "byteLength" : 167280,
            "byteOffset" : 1190748
        },
        {
            "buffer" : 0,
            "byteLength" : 41820,
            "byteOffset" : 1358028
        },
        {
            "buffer" : 0,
            "byteLength" : 243144,
            "byteOffset" : 1399848
        },
        {
            "buffer" : 0,
            "byteLength" : 243144,
            "byteOffset" : 1642992
        },
        {
            "buffer" : 0,
            "byteLength" : 162096,
            "byteOffset" : 1886136
        },
        {
            "buffer" : 0,
            "byteLength" : 250920,
            "byteOffset" : 2048232
        },
        {
            "buffer" : 0,
            "byteLength" : 250920,
            "byteOffset" : 2299152
        },
        {
            "buffer" : 0,
            "byteLength" : 167280,
            "byteOffset" : 2550072
        }
    ],
    "samplers" : [
        {
            "magFilter" : 9729,
            "minFilter" : 9987
        }
    ],
    "buffers" : [
        {
            "byteLength" : 2717352,
            "uri" : "tree.bin"
        }
    ]
}
